<?xml version="1.0" encoding="UTF-8"?>
<svg width="160px" height="32px" viewBox="0 0 160 32" version="1.1" xmlns="http://www.w3.org/2000/svg" xmlns:xlink="http://www.w3.org/1999/xlink">
    <!-- Generator: Sketch 48.2 (47327) - http://www.bohemiancoding.com/sketch -->
    <title>logo white and black</title>
    <desc>Created with Sketch.</desc>
    <defs></defs>
    <g id="Tablet" stroke="none" stroke-width="1" fill="none" fill-rule="evenodd" transform="translate(-16.000000, -4.000000)">
        <g id="navbar">
            <g id="logo-white-and-black" transform="translate(16.000000, 4.000000)">
                <g id="clarovideo-logo">
                    <polygon id="Shape" fill="#4A4A4A" fill-rule="nonzero" points="99.0171429 31.5885714 95.7714286 31.5885714 89.6 14.9942857 93.9428571 14.9942857 97.3257143 25.28 100.662857 14.9942857 105.005714 14.9942857"></polygon>
                    <path d="M108.342857,12.8914286 C106.925714,12.8914286 105.691429,11.7028571 105.691429,10.24 C105.691429,8.77714286 106.88,7.63428571 108.342857,7.63428571 C109.805714,7.63428571 110.948571,8.77714286 110.948571,10.24 C110.948571,11.7485714 109.76,12.8914286 108.342857,12.8914286 Z M106.24,31.5885714 L106.24,14.9942857 L110.4,14.9942857 L110.4,31.5885714 L106.24,31.5885714 Z" id="Shape" fill="#4A4A4A" fill-rule="nonzero"></path>
                    <path d="M122.834286,16.4571429 C122.834286,16.0457143 122.834286,8.91428571 122.834286,8.91428571 L126.994286,8.91428571 L126.994286,31.5885714 L122.925714,31.5885714 L122.925714,30.0342857 C121.782857,31.3142857 120.594286,31.8171429 118.811429,31.8171429 C115.748571,31.8171429 112.685714,30.4 113.051429,23.3142857 C113.142857,21.5314286 112.914286,18.0571429 114.742857,16.32 C116.845714,14.3085714 121.051429,14.2628571 122.834286,16.4571429 Z M120,18.5142857 C117.531429,18.5142857 117.211429,20.5714286 117.211429,23.2685714 C117.211429,25.9657143 117.531429,28.0228571 120,28.0228571 C122.468571,28.0228571 122.834286,25.9657143 122.834286,23.2685714 C122.834286,20.5714286 122.468571,18.5142857 120,18.5142857 Z" id="Shape" fill="#4A4A4A" fill-rule="nonzero"></path>
                    <path d="M133.622857,24.5485714 C133.622857,26.6971429 134.948571,28.2514286 137.234286,28.2514286 C139.062857,28.2514286 139.931429,27.7485714 140.982857,26.6971429 L143.497143,29.1657143 C141.805714,30.8571429 140.16,31.8171429 137.188571,31.8171429 C133.257143,31.8171429 129.508571,30.0342857 129.508571,23.3142857 C129.508571,17.8742857 132.434286,14.8571429 136.731429,14.8571429 C141.348571,14.8571429 143.954286,18.24 143.954286,22.7657143 L143.954286,24.5942857 L133.622857,24.5942857 L133.622857,24.5485714 Z M133.622857,21.7142857 C134.08,21.7142857 139.931429,21.7142857 139.931429,21.7142857 C139.885714,20.9828571 139.611429,18.24 136.777143,18.24 C135.405714,18.24 133.622857,19.1085714 133.622857,21.7142857 Z" id="Shape" fill="#4A4A4A" fill-rule="nonzero"></path>
                    <path d="M152.868571,31.8171429 C150.08,31.8171429 145.828571,30.7657143 145.828571,23.3142857 C145.828571,17.28 148.434286,14.8571429 152.868571,14.8571429 C159.177143,14.8571429 159.908571,20.2057143 159.908571,23.3142857 C159.908571,28.3885714 158.08,31.8171429 152.868571,31.8171429 Z M152.868571,18.5142857 C150.08,18.5142857 149.988571,21.5771429 149.988571,23.2685714 C149.988571,28.16 152.045714,28.0228571 152.868571,28.0228571 C153.691429,28.0228571 155.794286,28.1142857 155.794286,23.2685714 C155.794286,21.5771429 155.794286,18.5142857 152.868571,18.5142857 Z" id="Shape" fill="#4A4A4A" fill-rule="nonzero"></path>
                    <polygon id="Shape" fill="#D52B1E" fill-rule="nonzero" points="74.8342857 14.8114286 84.8457143 4.8 82.24 2.10285714 72.1828571 12.2057143"></polygon>
                    <rect id="Rectangle-path" fill="#D52B1E" fill-rule="nonzero" x="64.0457143" y="0.0457142857" width="3.70285714" height="10.7428571"></rect>
                    <rect id="Rectangle-path" fill="#D52B1E" fill-rule="nonzero" x="76.6628571" y="18.9714286" width="11.0171429" height="3.74857143"></rect>
                    <path d="M65.4171429,27.5657143 C63.3142857,27.5657143 60.8457143,25.92 60.8457143,22.9485714 C60.8457143,21.3485714 61.9885714,18.3314286 65.4171429,18.3314286 C68.2514286,18.3314286 70.0342857,20.5714286 70.0342857,22.9485714 C69.9885714,25.92 67.5657143,27.5657143 65.4171429,27.5657143 Z M74.1028571,22.9485714 C74.1028571,17.7828571 69.8971429,14.2171429 65.4171429,14.2171429 C60.2514286,14.2171429 56.7771429,18.56 56.7771429,22.9485714 C56.7771429,28.0228571 60.9828571,31.68 65.4171429,31.68 C69.8971429,31.68 74.1028571,28.1142857 74.1028571,22.9485714 Z" id="Shape" fill="#D52B1E" fill-rule="nonzero"></path>
                    <path d="M10.7428571,9.92 C4.06857143,9.92 0,15.3142857 0,20.7085714 C0,27.2914286 5.34857143,31.5428571 10.7428571,31.5428571 C15.7257143,31.5428571 19.8857143,28.1142857 21.0285714,23.6342857 L16.6857143,23.6342857 C16.0914286,24.6857143 14.2628571,27.4285714 10.7428571,27.4285714 C7.58857143,27.4285714 4.11428571,25.0057143 4.11428571,20.7085714 C4.11428571,17.3257143 6.58285714,14.0342857 10.7428571,14.0342857 C14.3085714,14.0342857 15.9542857,16.5942857 16.64,17.8742857 L20.9828571,17.8742857 C20.3428571,14.9028571 17.0057143,9.92 10.7428571,9.92 Z" id="Shape" fill="#D52B1E" fill-rule="nonzero"></path>
                    <path d="M38.8571429,23.5428571 L39.6342857,23.0857143 L39.6342857,24.7771429 C39.6342857,26.24 39.2228571,27.2457143 38.4914286,27.7942857 C37.7142857,28.3428571 36.8457143,28.6171429 35.8857143,28.6171429 C35.2914286,28.6171429 33.8285714,28.4342857 33.8285714,26.5142857 C33.8285714,25.6914286 34.1485714,24.3657143 36.8,24.0457143 L38.8571429,23.5428571 Z M37.0742857,14.1257143 C30.8114286,14.1257143 30.2171429,17.7828571 29.9885714,19.9771429 L34.1485714,19.9771429 C34.3314286,19.0171429 34.6514286,17.6457143 36.9371429,17.6457143 C39.5885714,17.6457143 39.7257143,18.7885714 39.7257143,19.4285714 C39.7257143,20.0228571 39.1771429,20.6171429 38.6742857,20.7085714 C34.6057143,21.3485714 33.28,21.5314286 31.9542857,22.3085714 C30.4,23.2228571 29.6685714,24.6857143 29.6685714,26.8342857 C29.6685714,30.9942857 33.0514286,31.4971429 34.4685714,31.5428571 C36.7542857,31.4971429 38.5371429,30.9485714 39.8171429,29.8057143 L39.8171429,31.5428571 L43.9771429,31.5428571 L43.9771429,19.3371429 C43.9771429,15.9085714 41.6457143,14.1257143 37.0742857,14.1257143 Z" id="Shape" fill="#D52B1E" fill-rule="nonzero"></path>
                    <rect id="Rectangle-path" fill="#D52B1E" fill-rule="nonzero" x="23.0857143" y="9.92" width="4.16" height="21.6685714"></rect>
                    <path d="M50.7428571,17.0971429 L50.7428571,14.9942857 L46.8114286,14.9485714 L46.8114286,31.5885714 L50.9257143,31.5885714 L50.9257143,23.6342857 C50.9257143,22.2628571 51.1085714,21.3028571 51.4285714,20.7085714 C51.7028571,20.0685714 53.0742857,18.3771429 55.1314286,18.3771429 L56.4114286,18.4685714 C56.4114286,18.4685714 56.3657143,14.5371429 56.3657143,14.2171429 C53.8057143,14.3085714 52.0228571,15.36 50.7428571,17.0971429 Z" id="Shape" fill="#D52B1E" fill-rule="nonzero"></path>
                </g>
            </g>
        </g>
    </g>
</svg>